# xmcd
#
# Track frame offsets:
#	182
#	18035
#	41995
#	60390
#	78372
#	99292
#	118102
#	135252
#	151870
#	169767
#	192170
#	211020
#	232630
#	256577
#	277445
#	293835
#	313620
#	328467
#
# Disc length: 4542 seconds
#
# Revision: 1
# Processed by: cddbd v1.5.2PL0 Copyright (c) Steve Scherf et al.
# Submitted via: EZCDAudioConverter 5.0.0.1
#
DISCID=ec11bc12
DTITLE=Dave Lewis - Puro Saxo
DYEAR=1996
DGENRE=Instrumental
TTITLE0=The Most Beatiful Girl In The World
TTITLE1=Careless  Whisper
TTITLE2=Can you Feel The Love Tonight
TTITLE3=Holding Back The Years
TTITLE4=You Are Not Alone
TTITLE5=I Wonder Why
TTITLE6=Crazy For You
TTITLE7=Save The Best For Last
TTITLE8=End Of The Road
TTITLE9=Baker Street
TTITLE10=After The Love Has Gone
TTITLE11=How Am I Supposed To Live Without You
TTITLE12=True
TTITLE13=Lily Was Here
TTITLE14=Goodnight Girl
TTITLE15=I Want To Know What Love Is
TTITLE16=The Girl From Ipanema
TTITLE17=My Funny Valentine
EXTD=
EXTT0=
EXTT1=
EXTT2=
EXTT3=
EXTT4=
EXTT5=
EXTT6=
EXTT7=
EXTT8=
EXTT9=
EXTT10=
EXTT11=
EXTT12=
EXTT13=
EXTT14=
EXTT15=
EXTT16=
EXTT17=
PLAYORDER=
